<svg  width="33" height="35" viewBox="0 0 33 35" fill="none" xmlns="http://www.w3.org/2000/svg">
<style>
svg {
    pointer-events: none;
    cursor: pointer;
}
.image {
    fill: black;
    transition: all ease .3s;
}
svg:hover .image {
    fill: white;
}
</style>
<path  class="image" fill-rule="evenodd" clip-rule="evenodd" d="M19.4209 4.37675C17.7886 2.81045 15.2114 2.81045 13.5791 4.37675L4.9045 12.7005C4.69197 12.9044 4.549 13.1701 4.49588 13.4598C3.45688 19.1258 3.38018 24.9264 4.26902 30.6178L4.47999 31.9688H10.0609V20.3225C10.0609 19.5459 10.6904 18.9163 11.4671 18.9163H21.5329C22.3095 18.9163 22.9391 19.5459 22.9391 20.3225V31.9688H28.52L28.731 30.6178C29.6198 24.9264 29.5431 19.1258 28.5041 13.4598C28.451 13.1701 28.308 12.9044 28.0955 12.7005L19.4209 4.37675ZM11.6318 2.3474C14.3523 -0.263098 18.6477 -0.263098 21.3682 2.3474L30.0428 10.6711C30.6813 11.2839 31.1109 12.0821 31.2705 12.9525C32.3665 18.9293 32.4474 25.0481 31.5098 31.0518L31.1709 33.2221C31.0307 34.1196 30.2577 34.7813 29.3493 34.7813H21.5329C20.7562 34.7813 20.1266 34.1517 20.1266 33.375V21.7288H12.8734V33.375C12.8734 34.1517 12.2438 34.7813 11.4671 34.7813H3.65074C2.74233 34.7813 1.96929 34.1196 1.82913 33.2221L1.4902 31.0518C0.552607 25.0481 0.633508 18.9293 1.7295 12.9525C1.88913 12.0821 2.31866 11.2839 2.95723 10.6711L11.6318 2.3474Z"/>
</svg>
