<svg width="147" height="160" viewBox="0 0 147 160" fill="none" xmlns="http://www.w3.org/2000/svg">
<path fill-rule="evenodd" clip-rule="evenodd" d="M33.6562 40.3125C33.6562 18.3074 51.4949 0.46875 73.5 0.46875C95.5051 0.46875 113.344 18.3074 113.344 40.3125C113.344 62.3176 95.5051 80.1562 73.5 80.1562C51.4949 80.1562 33.6562 62.3176 33.6562 40.3125ZM73.5 14.5312C59.2614 14.5312 47.7188 26.0739 47.7188 40.3125C47.7188 54.5511 59.2614 66.0938 73.5 66.0938C87.7386 66.0938 99.2812 54.5511 99.2812 40.3125C99.2812 26.0739 87.7386 14.5312 73.5 14.5312Z" fill="#B3B3B3"/>
<path fill-rule="evenodd" clip-rule="evenodd" d="M36 108.281C24.3502 108.281 14.9062 117.725 14.9062 129.375V140.515C14.9062 140.685 15.0292 140.829 15.1966 140.857C53.8099 147.161 93.1901 147.161 131.803 140.857C131.971 140.829 132.094 140.685 132.094 140.515V129.375C132.094 117.725 122.65 108.281 111 108.281H107.804C107.557 108.281 107.312 108.32 107.077 108.397L98.9626 111.047C82.4174 116.449 64.5826 116.449 48.0373 111.047L39.9231 108.397C39.6883 108.32 39.4427 108.281 39.1956 108.281H36ZM0.84375 129.375C0.84375 109.959 16.5837 94.2188 36 94.2188H39.1956C40.9253 94.2188 42.644 94.4922 44.2882 95.0291L52.4024 97.6787C66.1113 102.155 80.8887 102.155 94.5976 97.6787L102.712 95.0291C104.356 94.4922 106.075 94.2188 107.804 94.2188H111C130.416 94.2188 146.156 109.959 146.156 129.375V140.515C146.156 147.577 141.039 153.598 134.069 154.735C93.9553 161.285 53.0447 161.285 12.9307 154.735C5.96141 153.598 0.84375 147.577 0.84375 140.515V129.375Z" fill="#B3B3B3"/>
</svg>
