<svg width="45" height="45" viewBox="0 0 45 45" fill="none" xmlns="http://www.w3.org/2000/svg">
<style>
svg {
    pointer-events: none;
    cursor: pointer;
}
.image {
    fill: black;
    transition: all ease .3s;
}
svg:hover .image {
    fill: white;
}

</style>
<path class="image" d="M12.054 4.52442C12.5647 3.93928 12.5043 3.05094 11.9192 2.54026C11.3341 2.02958 10.4457 2.08994 9.93503 2.67508L7.51289 5.4504C6.13897 7.02467 5.36228 9.03188 5.31871 11.1209L5.21244 16.2165C5.19625 16.993 5.81258 17.6356 6.58906 17.6518C7.36554 17.668 8.00813 17.0517 8.02433 16.2752L8.1306 11.1796C8.16041 9.75022 8.69183 8.37686 9.63188 7.29974L12.054 4.52442Z"/>
<path class="image" fill-rule="evenodd" clip-rule="evenodd" d="M11.6944 14.439C11.9548 10.2751 15.4078 7.03136 19.5798 7.03136H20.625V5.62511C20.625 4.58958 21.4645 3.75011 22.5 3.75011C23.5355 3.75011 24.375 4.58958 24.375 5.62511V7.03136H25.4201C29.5921 7.03136 33.0451 10.2751 33.3056 14.439L33.7199 21.0642C33.8779 23.5902 34.726 26.0245 36.1717 28.1018C37.478 29.9788 36.3151 32.5711 34.0446 32.8436L27.6562 33.6102V35.6251C27.6562 38.4728 25.3477 40.7814 22.5 40.7814C19.6523 40.7814 17.3437 38.4728 17.3437 35.6251V33.6102L10.9554 32.8436C8.68489 32.5711 7.52198 29.9788 8.82825 28.1018C10.274 26.0245 11.122 23.5902 11.28 21.0642L11.6944 14.439ZM19.5798 9.84386C16.893 9.84386 14.6691 11.9329 14.5014 14.6146L14.087 21.2398C13.8969 24.2794 12.8764 27.2086 11.1367 29.7084C11.0423 29.8441 11.1264 30.0314 11.2905 30.0511L18.2986 30.8921C21.0895 31.227 23.9105 31.227 26.7014 30.8921L33.7095 30.0511C33.8736 30.0314 33.9577 29.8441 33.8632 29.7084C32.1235 27.2086 31.1031 24.2794 30.9129 21.2398L30.4986 14.6146C30.3308 11.9329 28.107 9.84386 25.4201 9.84386H19.5798ZM22.5 37.9689C21.2056 37.9689 20.1562 36.9195 20.1562 35.6251V34.2189H24.8437V35.6251C24.8437 36.9195 23.7944 37.9689 22.5 37.9689Z" />
<path class="image" d="M33.0808 2.54026C32.4957 3.05094 32.4353 3.93928 32.946 4.52442L35.3681 7.29974C36.3082 8.37686 36.8396 9.75022 36.8694 11.1796L36.9757 16.2752C36.9919 17.0517 37.6345 17.668 38.4109 17.6518C39.1874 17.6356 39.8038 16.993 39.7876 16.2165L39.6813 11.1209C39.6377 9.03188 38.861 7.02467 37.4871 5.4504L35.065 2.67508C34.5543 2.08994 33.6659 2.02958 33.0808 2.54026Z" />
</svg>
